<?xml version="1.0" encoding="UTF-8"?>
<svg width="50mm" height="50mm" version="1.1" viewBox="0 0 50 50" xmlns="http://www.w3.org/2000/svg">
 <g transform="translate(-26.366398,-108.40027)">
  <g fill-rule="evenodd" stroke="#000" stroke-width=".26458332px">
   <path d="m42.026774 151.85165s-3.474505 4.00904-1.870887 5.07812 4.610399-3.54132 4.610399-3.54132z" fill="#c5b69f"/>
   <path d="m63.876058 152.92073s2.543808 5.37642 4.281059 4.37416c1.737252-1.00226-0.873374-6.31187-0.873374-6.31187z" fill="#bbac94"/>
   <path d="m54.521624 109.15534c5.048233-0.11385 12.810415 1.76132 15.234364 3.60814 3.327633 2.53534 2.89968 9.64454 2.806328 14.03166-0.09335 4.38711-1.759529 7.75029-2.405426 11.09168-0.844143 4.36697 1.069047 9.77909-1.737251 13.22984-3.155423 3.88005-9.164565 5.0098-14.165284 4.94448-4.905593-0.0641-10.761616-1.33201-13.764381-5.21175-2.769956-3.57893-0.925884-7.13341-1.469983-11.62622-0.486256-4.01519-1.399507-9.99192-1.202712-14.03165 0.209244-4.29528 0.463485-8.55589 3.474502-11.62623 3.411628-3.47884 8.358551-4.30009 13.229843-4.40995z" fill="#9cd6e1"/>
   <path d="m39.888618 137.21864s-3.006783 3.20724-1.870887 4.54358c1.135896 1.33635 3.741774-2.53906 3.741774-2.53906" fill="#c6bfab"/>
   <path d="m67.350561 139.3568s2.229155 2.12629 3.431866 1.3913c1.202714-0.73499-1.360528-2.86128-1.360528-2.86128" fill="#c1b99f"/>
  </g>
  <g fill="#fff" fill-rule="evenodd" stroke="#000" stroke-width=".26458332px">
   <path d="m45.024873 115.742c3.875408-0.20045 6.928623-0.44953 7.091325 4.63866 0.195744 6.12151-1.469983 6.94901-7.216278 6.81537-5.746295-0.13363-7.416728-2.13815-7.349911-6.34765 0.06682-4.20949 4.048551-4.92915 7.474864-5.10638z"/>
   <path d="m67.951917 115.77026c-9.05552-0.78378-8.819894 1.93771-8.753076 5.81312 0.06682 3.8754 1.269529 5.87992 7.082642 5.87992 5.813112 0 6.949008-3.00678 6.88219-6.01356-0.06682-3.00678-1.561695-5.36356-5.211756-5.67948z"/>
   <path d="m53.853451 127.66376s-0.868627 3.00678 0 3.14041c0.868624 0.13364 2.472242 0.60136 2.338607-0.20045-0.133633-0.80181-0.267269-3.20723-0.267269-3.20723z"/>
  </g>
  <path d="m54.732819 130.00237 0.133636-2.60588" fill="none" stroke="#000" stroke-width=".26458332px"/>
  <g fill-rule="evenodd">
   <g stroke="#000" stroke-width=".26458332px">
    <path d="m56.726597 123.9888c1.336349 0.66817 4.009044 3.60814-0.200453 3.94223-4.12969 0.32775-6.147198-0.66818-2.271789-3.74178" fill="#d4c8b0"/>
    <path d="m41.492234 114.60096s-4.009043-1.30294-2.338607-2.90656c1.670433-1.60361 4.409946 0.80181 4.409946 0.80181" fill="#9cd6e1"/>
    <path d="m66.390223 112.41122s3.474503-3.74177 5.34539-1.67044c1.870887 2.07134-1.069078 4.00905-1.069078 4.00905" fill="#9cd6e1"/>
    <path d="m54.722075 122.51882c2.605879-0.0668 2.33861 0.86863 2.405428 1.26953 0.06681 0.4009-0.467723 1.60362-1.536801 1.46998-1.069078-0.13363-1.804069-0.53454-1.737251-1.26953 0.06682-0.73499 0.868624-1.46998 0.868624-1.46998z" fill="#767263"/>
   </g>
   <path d="m44.813895 120.37972c0.18899 0 1.74814 0.0945 1.700893 1.27567-0.04725 1.18118-0.283483 1.79539-1.41741 1.65365s-1.842635-0.47247-1.653646-1.37017c0.188989-0.89769 0.04725-1.55915 1.370163-1.55915z" fill="#1a1a1a"/>
   <path d="m66.277407 120.51265c1.48829 0.0472 1.58278 0.3071 1.58278 1.60639 0 0.99862-0.249376 1.44509-1.2048 1.39379-1.326272-0.0712-1.81901-0.28348-1.74814-1.58277 0.0709-1.2993 0.68508-1.48829 1.37016-1.41741z" fill="#1a1a1a"/>
  </g>
  <g fill-rule="evenodd" stroke="#000" stroke-width=".26458332px">
   <path d="m35.898228 131.10879-0.0945-3.59076-6.142112-0.0945-0.09449 3.68526" fill="#f9f9f9"/>
   <path d="m35.747035 134.90747 36.805431-0.47247-0.07828 2.60432-36.585409-0.10024z" fill="#f9f9f9"/>
   <path d="m29.708867 157.47264 6.236607-0.0472-0.04725-26.3166h-6.331102z" fill="#e6e6e6"/>
  </g>
  <g fill-rule="evenodd">
   <path d="m30.60656 135.05392 4.129941 0.01 0.0042 8.63662-4.086866 0.0709z" fill="#808080" stroke="#000" stroke-width=".26458332px"/>
   <path d="m31.153852 136.01201 0.478305-0.34098 1.118309 1.2679 1.164716-1.32292 0.343831 0.30904-1.140849 1.29832 1.054707 1.16921-0.377239 0.36614-1.02846-1.20968-1.265192 1.30644-0.392756-0.33754 1.264946-1.2729z" fill="#857272"/>
   <path d="m33.800381 141.36091 0.496093-0.0118 0.01038 2.03187-1.958234 0.0152 0.01181-0.43703 1.110742-0.0225-2.321273-1.89411 0.401601-0.49606 2.271071 1.99451z" fill="#4effb5"/>
  </g>
 </g>
</svg>
