<?xml version="1.0" encoding="UTF-8" standalone="no"?>
<!-- Created with Inkscape (http://www.inkscape.org/) -->

<svg
   xmlns:dc="http://purl.org/dc/elements/1.1/"
   xmlns:cc="http://creativecommons.org/ns#"
   xmlns:rdf="http://www.w3.org/1999/02/22-rdf-syntax-ns#"
   xmlns:svg="http://www.w3.org/2000/svg"
   xmlns="http://www.w3.org/2000/svg"
   xmlns:sodipodi="http://sodipodi.sourceforge.net/DTD/sodipodi-0.dtd"
   xmlns:inkscape="http://www.inkscape.org/namespaces/inkscape"
   width="200"
   height="200"
   viewBox="0 0 52.916668 52.916668"
   version="1.1"
   id="svg4804"
   inkscape:version="0.92.2 2405546, 2018-03-11"
   sodipodi:docname="radius.svg">
  <defs
     id="defs4798" />
  <sodipodi:namedview
     id="base"
     pagecolor="#ffffff"
     bordercolor="#666666"
     borderopacity="1.0"
     inkscape:pageopacity="0.0"
     inkscape:pageshadow="2"
     inkscape:zoom="2.8"
     inkscape:cx="56.677708"
     inkscape:cy="63.596437"
     inkscape:document-units="px"
     inkscape:current-layer="layer1"
     showgrid="false"
     fit-margin-top="10"
     fit-margin-left="10"
     fit-margin-bottom="10"
     fit-margin-right="10"
     showguides="false"
     inkscape:guide-bbox="true"
     units="px"
     inkscape:window-width="1916"
     inkscape:window-height="1024"
     inkscape:window-x="0"
     inkscape:window-y="35"
     inkscape:window-maximized="0">
    <sodipodi:guide
       position="2.6458334,0"
       orientation="1,0"
       id="guide5399"
       inkscape:locked="false"
       inkscape:label=""
       inkscape:color="rgb(0,0,255)" />
    <sodipodi:guide
       position="50.270835,0"
       orientation="1,0"
       id="guide5401"
       inkscape:locked="false"
       inkscape:label=""
       inkscape:color="rgb(0,0,255)" />
    <sodipodi:guide
       position="0,50.270835"
       orientation="0,1"
       id="guide5403"
       inkscape:locked="false"
       inkscape:label=""
       inkscape:color="rgb(0,0,255)" />
    <sodipodi:guide
       position="0,2.6458334"
       orientation="0,1"
       id="guide5405"
       inkscape:locked="false"
       inkscape:label=""
       inkscape:color="rgb(0,0,255)" />
    <sodipodi:guide
       position="3.4395834,0"
       orientation="1,0"
       id="guide5489"
       inkscape:locked="false"
       inkscape:label=""
       inkscape:color="rgb(0,0,255)" />
    <sodipodi:guide
       position="7.1437502,0"
       orientation="1,0"
       id="guide5491"
       inkscape:locked="false"
       inkscape:label=""
       inkscape:color="rgb(0,0,255)" />
    <sodipodi:guide
       position="0,23.018751"
       orientation="0,1"
       id="guide5493"
       inkscape:locked="false"
       inkscape:label=""
       inkscape:color="rgb(0,0,255)" />
    <sodipodi:guide
       position="0,15.610417"
       orientation="0,1"
       id="guide5495"
       inkscape:locked="false"
       inkscape:label=""
       inkscape:color="rgb(0,0,255)" />
    <sodipodi:guide
       position="3.4395834,23.018751"
       orientation="0.70710678,0.70710678"
       id="guide5497"
       inkscape:locked="false" />
    <sodipodi:guide
       position="7.1437502,23.018751"
       orientation="-0.70710678,0.70710678"
       id="guide5499"
       inkscape:locked="false" />
    <sodipodi:guide
       position="0,22.489584"
       orientation="0,1"
       id="guide5507"
       inkscape:locked="false"
       inkscape:label=""
       inkscape:color="rgb(0,0,255)" />
    <sodipodi:guide
       position="0,19.314584"
       orientation="0,1"
       id="guide5509"
       inkscape:locked="false"
       inkscape:label=""
       inkscape:color="rgb(0,0,255)" />
    <sodipodi:guide
       position="0,20.372916"
       orientation="0,1"
       id="guide5513"
       inkscape:locked="false"
       inkscape:label=""
       inkscape:color="rgb(0,0,255)" />
    <sodipodi:guide
       position="3.4395834,15.610417"
       orientation="-0.70710678,0.70710678"
       id="guide5515"
       inkscape:locked="false" />
    <sodipodi:guide
       position="7.1437502,15.610417"
       orientation="0.70710678,0.70710678"
       id="guide5517"
       inkscape:locked="false" />
    <sodipodi:guide
       position="0,18.256251"
       orientation="0,1"
       id="guide5519"
       inkscape:locked="false"
       inkscape:label=""
       inkscape:color="rgb(0,0,255)" />
    <sodipodi:guide
       position="0,16.139584"
       orientation="0,1"
       id="guide5523"
       inkscape:locked="false"
       inkscape:label=""
       inkscape:color="rgb(0,0,255)" />
    <sodipodi:guide
       position="6.6145832,16.139584"
       orientation="1,0"
       id="guide5525"
       inkscape:locked="false" />
    <sodipodi:guide
       position="3.9687504,16.139584"
       orientation="1,0"
       id="guide5527"
       inkscape:locked="false" />
    <sodipodi:guide
       position="5.2916668,17.4625"
       orientation="1,0"
       id="guide5531"
       inkscape:locked="false" />
    <sodipodi:guide
       position="5.2916668,17.4625"
       orientation="0,1"
       id="guide5533"
       inkscape:locked="false" />
  </sodipodi:namedview>
  <metadata
     id="metadata4801">
    <rdf:RDF>
      <cc:Work
         rdf:about="">
        <dc:format>image/svg+xml</dc:format>
        <dc:type
           rdf:resource="http://purl.org/dc/dcmitype/StillImage" />
        <dc:title></dc:title>
      </cc:Work>
    </rdf:RDF>
  </metadata>
  <g
     inkscape:label="Layer 1"
     inkscape:groupmode="layer"
     id="layer1"
     transform="translate(-12.009782,-245.96751)">
    <path
       d="m 27.060983,290.87977 c 0,0 -3.439528,3.96868 -1.852055,5.027 1.587475,1.05832 4.563985,-3.50568 4.563985,-3.50568 z"
       id="path917"
       inkscape:connector-curvature="0"
       style="fill:#c5b69f;fill-rule:evenodd;stroke:#000000;stroke-width:0.2619195px" />
    <path
       d="m 48.690292,291.9381 c 0,0 2.518202,5.32227 4.237962,4.33011 1.719764,-0.99217 -0.864577,-6.24832 -0.864577,-6.24832 z"
       id="path919"
       inkscape:connector-curvature="0"
       style="fill:#bbac94;fill-rule:evenodd;stroke:#000000;stroke-width:0.2619195px" />
    <path
       d="m 39.430035,248.61329 c 4.997412,-0.11258 12.681448,1.7436 15.080995,3.57182 3.294133,2.50981 2.870484,9.54744 2.77807,13.89039 -0.0924,4.34294 -1.741815,7.67226 -2.381208,10.98001 -0.835642,4.32301 1.058288,9.68063 -1.719759,13.09667 -3.123651,3.84098 -9.072301,4.95935 -14.022674,4.89469 -4.856206,-0.0636 -10.653271,-1.31859 -13.625806,-5.15926 -2.742069,-3.54294 -0.916562,-7.06163 -1.455185,-11.5092 -0.48136,-3.97477 -1.385416,-9.89133 -1.190603,-13.89038 0.207136,-4.25204 0.458819,-8.46976 3.439522,-11.50919 3.377281,-3.44381 8.274402,-4.25679 13.096648,-4.36555 z"
       id="path921"
       inkscape:connector-curvature="0"
       style="fill:#9cd6e1;fill-rule:evenodd;stroke:#000000;stroke-width:0.2619195px" />
    <path
       d="m 25.345254,277.06223 c 0,0 -2.976511,3.17495 -1.852052,4.49785 1.124461,1.32289 3.704105,-2.51349 3.704105,-2.51349"
       id="path923"
       inkscape:connector-curvature="0"
       style="fill:#c6bfab;fill-rule:evenodd;stroke:#000000;stroke-width:0.2619195px" />
    <path
       d="m 51.953051,278.04898 c 0,0 2.50739,4.07638 3.697992,3.34879 1.190605,-0.72759 -1.647508,-4.5367 -1.647508,-4.5367"
       id="path925"
       inkscape:connector-curvature="0"
       style="fill:#c1b99f;fill-rule:evenodd;stroke:#000000;stroke-width:0.2619195px"
       sodipodi:nodetypes="ccc" />
    <path
       style="fill:#ffffff;fill-rule:evenodd;stroke:#000000;stroke-width:0.2619195px"
       d="m 30.028896,255.13363 c 3.83639,-0.19843 6.858868,-0.44499 7.019931,4.59196 0.193773,6.0599 -1.455181,6.87906 -7.143626,6.74676 -5.688445,-0.13224 -7.34206,-2.11663 -7.275915,-6.28373 0.06614,-4.16711 4.007792,-4.87954 7.39961,-5.05499 z"
       id="path929"
       inkscape:connector-curvature="0" />
    <path
       style="fill:#ffffff;fill-rule:evenodd;stroke:#000000;stroke-width:0.2619195px"
       d="m 52.725121,255.16161 c -8.964354,-0.77589 -8.731101,1.91822 -8.664954,5.75461 0.06615,3.83636 1.256751,5.82071 7.011337,5.82071 5.754586,0 6.87905,-2.97651 6.812901,-5.95302 -0.06615,-2.97649 -1.545974,-5.30955 -5.159284,-5.6223 z"
       id="path931"
       inkscape:connector-curvature="0" />
    <path
       style="fill:#ffffff;fill-rule:evenodd;stroke:#000000;stroke-width:0.2619195px"
       d="m 38.76859,266.93538 c 0,0 -0.85988,2.97649 0,3.10878 0.85988,0.13223 2.447353,0.5953 2.315064,-0.19842 -0.132288,-0.79375 -0.264579,-3.17495 -0.264579,-3.17495 z"
       id="path933"
       inkscape:connector-curvature="0" />
    <path
       style="fill:none;stroke:#000000;stroke-width:0.2619195px"
       inkscape:connector-curvature="0"
       id="path937"
       d="m 39.639107,269.25044 0.132288,-2.57965" />
    <path
       style="fill:#d4c8b0;fill-rule:evenodd;stroke:#000000;stroke-width:0.2619195px"
       inkscape:connector-curvature="0"
       id="path939"
       d="m 41.61281,263.29741 c 1.3229,0.66146 3.968686,3.57181 -0.198435,3.90254 -4.088111,0.32445 -6.085307,-0.66145 -2.248916,-3.7041" />
    <path
       style="fill:#9cd6e1;fill-rule:evenodd;stroke:#000000;stroke-width:0.2619195px"
       inkscape:connector-curvature="0"
       id="path941"
       d="m 26.531822,254.00409 c 0,0 -3.968682,-1.28982 -2.315063,-2.87729 1.653616,-1.58747 4.365549,0.79374 4.365549,0.79374" />
    <path
       style="fill:#9cd6e1;fill-rule:evenodd;stroke:#000000;stroke-width:0.2619195px"
       inkscape:connector-curvature="0"
       id="path943"
       d="m 51.179151,251.83639 c 0,0 3.439522,-3.7041 5.291571,-1.65362 1.852052,2.05049 -1.058315,3.96868 -1.058315,3.96868" />
    <path
       style="fill:#767263;fill-rule:evenodd;stroke:#000000;stroke-width:0.2619195px"
       inkscape:connector-curvature="0"
       id="path945"
       d="m 39.62847,261.84223 c 2.579645,-0.0663 2.315064,0.85989 2.381211,1.25675 0.06613,0.39687 -0.463013,1.58748 -1.521328,1.45518 -1.058318,-0.13222 -1.785908,-0.52917 -1.719763,-1.25675 0.06615,-0.72759 0.85988,-1.45518 0.85988,-1.45518 z" />
    <path
       d="m 29.820042,259.72466 c 0.187089,0 1.73054,0.0936 1.683769,1.26283 -0.04678,1.16929 -0.280628,1.77731 -1.403138,1.637 -1.122512,-0.14034 -1.824085,-0.46771 -1.636999,-1.35637 0.187087,-0.88865 0.04677,-1.54346 1.356368,-1.54346 z"
       id="path949"
       inkscape:connector-curvature="0"
       style="fill:#1a1a1a;fill-rule:evenodd;stroke-width:0.989932" />
    <path
       d="m 51.067471,259.85626 c 1.473304,0.0467 1.566846,0.30401 1.566846,1.59022 0,0.98857 -0.246866,1.43054 -1.192675,1.37977 -1.312917,-0.0705 -1.800698,-0.28065 -1.73054,-1.56686 0.07019,-1.28621 0.678182,-1.4733 1.356369,-1.40313 z"
       id="path951"
       inkscape:connector-curvature="0"
       style="fill:#1a1a1a;fill-rule:evenodd;stroke-width:0.989932" />
    <path
       d="m 19.947282,275.07168 0,-2.64584 h -5.291667 l 0,2.64584"
       id="path955"
       inkscape:connector-curvature="0"
       style="fill:#f9f9f9;fill-rule:evenodd;stroke:#000000;stroke-width:0.20681711px"
       sodipodi:nodetypes="cccc" />
    <path
       d="m 19.153532,278.51126 h 43.127085 v 2.11667 H 19.153532 Z"
       id="path957"
       inkscape:connector-curvature="0"
       style="fill:#f9f9f9;fill-rule:evenodd;stroke:#000000;stroke-width:0.20681711px"
       sodipodi:nodetypes="ccccc" />
    <path
       d="m 14.655615,296.23834 5.291667,0 v -21.16666 h -5.291667 z"
       id="path959"
       inkscape:connector-curvature="0"
       style="fill:#e6e6e6;fill-rule:evenodd;stroke:#000000;stroke-width:0.20681711px"
       sodipodi:nodetypes="ccccc" />
    <path
       d="m 15.449365,275.86543 h 3.704167 v 7.40833 h -3.704167 z"
       id="path963"
       inkscape:connector-curvature="0"
       style="fill:#808080;fill-rule:evenodd;stroke:#000000;stroke-width:0.20681711px"
       sodipodi:nodetypes="ccccc" />
    <path
       style="fill:none;fill-rule:evenodd;stroke:#7b4f4f;stroke-width:0.52916668;stroke-linecap:round;stroke-linejoin:miter;stroke-opacity:1;stroke-miterlimit:4;stroke-dasharray:none"
       d="m 15.978532,276.39459 2.645834,2.64584"
       id="path5501"
       inkscape:connector-curvature="0"
       sodipodi:nodetypes="cc" />
    <path
       style="fill:none;fill-rule:evenodd;stroke:#7b4f4f;stroke-width:0.52916668;stroke-linecap:round;stroke-linejoin:miter;stroke-opacity:1;stroke-miterlimit:4;stroke-dasharray:none"
       d="m 18.624365,276.39459 -2.645834,2.64584"
       id="path5503"
       inkscape:connector-curvature="0"
       sodipodi:nodetypes="cc" />
    <path
       style="fill:none;fill-rule:evenodd;stroke:#4effb5;stroke-width:0.52916668;stroke-linecap:round;stroke-linejoin:miter;stroke-opacity:1;stroke-miterlimit:4;stroke-dasharray:none"
       d="m 15.978532,280.09876 2.645833,2.64583"
       id="path5529"
       inkscape:connector-curvature="0" />
    <path
       style="fill:none;fill-rule:evenodd;stroke:#4effb5;stroke-width:0.52916668;stroke-linecap:round;stroke-linejoin:miter;stroke-opacity:1;stroke-miterlimit:4;stroke-dasharray:none"
       d="m 17.301449,282.74459 h 1.322916"
       id="path5535"
       inkscape:connector-curvature="0" />
    <path
       style="fill:none;fill-rule:evenodd;stroke:#4effb5;stroke-width:0.52916668;stroke-linecap:round;stroke-linejoin:miter;stroke-opacity:1;stroke-miterlimit:4;stroke-dasharray:none"
       d="m 18.624365,281.42168 v 1.32291"
       id="path5537"
       inkscape:connector-curvature="0" />
  </g>
</svg>
