<?xml version="1.0" encoding="UTF-8" standalone="no"?>
<!DOCTYPE svg PUBLIC "-//W3C//DTD SVG 1.0//EN" "http://www.w3.org/TR/2001/PR-SVG-20010719/DTD/svg10.dtd">
<svg width="16cm" height="26cm" viewBox="12 -108 315 519" xmlns="http://www.w3.org/2000/svg" xmlns:xlink="http://www.w3.org/1999/xlink">
  <defs/>
  <g id="Background">
    <path style="fill: #d4c8b0; fill-opacity: 1; stroke-opacity: 1; stroke-width: 3; stroke: #000000" fill-rule="evenodd" d="M 230 360 C 250,360 270,410 250,410 C 230,410 210,360 230,360z"/>
    <path style="fill: #d4c8b0; fill-opacity: 1; stroke-opacity: 1; stroke-width: 3; stroke: #000000" fill-rule="evenodd" d="M 90 360 C 110,360 90,410 70,410 C 50,410 70,360 90,360z"/>
    <path style="fill: #9cd6e1; fill-opacity: 1; stroke-opacity: 1; stroke-width: 3; stroke: #000000" fill-rule="evenodd" d="M 160 0 C 320,0 280,170 280,220 C 280,270 300,400 160,400 C 20,400 40,270 40,220 C 40,170 0,0 160,0z"/>
    <path style="fill: #ffffff; fill-opacity: 1; stroke-opacity: 1; stroke-width: 3; stroke: #000000" fill-rule="evenodd" d="M 80 60 C 140,60 160,160 80,160 C 0,160 20,60 80,60z"/>
    <path style="fill: #ffffff; fill-opacity: 1; stroke-opacity: 1; stroke-width: 3; stroke: #000000" fill-rule="evenodd" d="M 240 60 C 300,60 320,160 240,160 C 160,160 180,60 240,60z"/>
    <path style="fill: #000000; fill-opacity: 1; stroke-opacity: 1; stroke-width: 8.29377e-39; stroke: #000000" fill-rule="evenodd" d="M 76 80 C 96,80 96,112 76,112 C 56,112 56,80 76,80z"/>
    <path style="fill: #000000; fill-opacity: 1; stroke-opacity: 1; stroke-width: 8.29377e-39; stroke: #000000" fill-rule="evenodd" d="M 244 80 C 264,80 264,112 244,112 C 224,112 224,80 244,80z"/>
    <path style="fill: #ffffff; fill-opacity: 1; stroke-opacity: 1; stroke-width: 3; stroke: #000000" fill-rule="evenodd" d="M 140 180 C 144,176 174,177.333 176,184 C 178,190.667 184,216 180,220 C 176,224 132,222.666 132,216 C 132,209.334 136,184 140,180z"/>
    <line style="fill: none; stroke-opacity: 1; stroke-width: 3; stroke: #000000" x1="158.75" y1="178" x2="156" y2="210"/>
    <path style="fill: #d4c8b0; fill-opacity: 1; stroke-opacity: 1; stroke-width: 3; stroke: #000000" fill-rule="evenodd" d="M 160 160 C 180,160 232,192 160,192 C 88,192 140,160 160,160z"/>
    <path style="fill: #767263; fill-opacity: 1; stroke-opacity: 1; stroke-width: 3; stroke: #000000" fill-rule="evenodd" d="M 156 144 C 188,144 200,180 160,180 C 120,180 124,144 156,144z"/>
    <path style="fill: #9cd6e1; fill-opacity: 1; stroke-opacity: 0; stroke-width: 8.29377e-39; stroke: #000000" fill-rule="evenodd" d="M 80 40 C 120,20 66,-8 50,0 C 34,8 40,60 80,40z"/>
    <path style="fill: none; stroke-opacity: 1; stroke-width: 3; stroke: #000000" d="M 64 46 C 46,44 34,16 46,4 C 58,-8 84,4 98,22"/>
    <path style="fill: #9cd6e1; fill-opacity: 1; stroke-opacity: 0; stroke-width: 8.29377e-39; stroke: #000000" fill-rule="evenodd" d="M 240 44 C 268,60 280,16 256,0 C 232,-16 212,28 240,44z"/>
    <path style="fill: none; stroke-opacity: 1; stroke-width: 3; stroke: #000000" d="M 222 32 C 220,18 238,-18 260,4 C 282,26 262,46 252,48"/>
    <path style="fill: none; stroke-opacity: 1; stroke-width: 14.1111; stroke: #ffa500" d="M 20,-20 A 180.625,180.625 0 0 1 320,-20"/>
    <path style="fill: none; stroke-opacity: 1; stroke-width: 14.1111; stroke: #ffa500" d="M 80,-20 A 134.742,134.742 0 0 1 260,-20"/>
    <path style="fill: #d4c8b0; fill-opacity: 1; stroke-opacity: 0; stroke-width: 8.29377e-39; stroke: #000000" fill-rule="evenodd" d="M 30 310 C 40,320 62,290 62,288 C 62,286 48,278 46,280 C 44,282 20,300 30,310z"/>
    <path style="fill: #d4c8b0; fill-opacity: 1; stroke-opacity: 0; stroke-width: 8.29377e-39; stroke: #000000" fill-rule="evenodd" d="M 258 292 C 256,294 270,324 284,316 C 298,308 272,286 270,286 C 268,286 260,290 258,292z"/>
    <path style="fill: none; stroke-opacity: 1; stroke-width: 3; stroke: #000000" d="M 48 280 C 12,296 28,338 62,288"/>
    <path style="fill: none; stroke-opacity: 1; stroke-width: 3; stroke: #000000" d="M 258 292 C 266,330 310,320 270,286"/>
  </g>
</svg>
